<svg xmlns="http://www.w3.org/2000/svg" width="1200" height="720" viewBox="0 0 1200 720">
  <defs>
    <linearGradient id="bg" x1="0" y1="0" x2="1" y2="1">
      <stop offset="0" stop-color="#16a34a"/>
      <stop offset="1" stop-color="#059669"/>
    </linearGradient>
    <filter id="shadow" x="-20%" y="-20%" width="140%" height="140%">
      <feDropShadow dx="0" dy="14" stdDeviation="18" flood-color="#000" flood-opacity="0.18"/>
    </filter>
    <style>
      .ui { font-family: ui-sans-serif, system-ui, -apple-system, Segoe UI, Roboto, Helvetica, Arial; }
      .t0 { font-size: 18px; font-weight: 700; fill: #052e16; }
      .t1 { font-size: 13px; font-weight: 600; fill: #14532d; }
      .t2 { font-size: 12px; font-weight: 500; fill: #64748b; }
      .t3 { font-size: 12px; font-weight: 700; fill: #0f172a; }
      .small { font-size: 11px; font-weight: 600; fill: #334155; }
    </style>
  </defs>

  <rect x="0" y="0" width="1200" height="720" fill="url(#bg)"/>

  <g filter="url(#shadow)">
    <rect x="110" y="84" width="980" height="552" rx="18" fill="#ffffff"/>
    <rect x="110" y="84" width="980" height="56" rx="18" fill="#f0fdf4"/>
    <rect x="110" y="122" width="980" height="18" fill="#f0fdf4"/>

    <circle cx="146" cy="112" r="7" fill="#ef4444"/>
    <circle cx="170" cy="112" r="7" fill="#f59e0b"/>
    <circle cx="194" cy="112" r="7" fill="#22c55e"/>

    <text class="ui t0" x="240" y="118">Study Planner</text>
    <text class="ui t2" x="240" y="138">Exam mode · Feb 2026 · Daily goals enabled</text>

    <rect x="140" y="164" width="260" height="440" rx="14" fill="#f0fdf4" stroke="#dcfce7"/>
    <text class="ui t3" x="160" y="196">Today</text>
    <text class="ui t1" x="160" y="218">Wed, 12 Feb</text>

    <g class="ui">
      <rect x="160" y="238" width="220" height="34" rx="12" fill="#ffffff" stroke="#dcfce7"/>
      <circle cx="178" cy="255" r="7" fill="#22c55e"/>
      <path d="M174 255 l3 3 l7 -8" fill="none" stroke="#ffffff" stroke-width="2.2" stroke-linecap="round" stroke-linejoin="round"/>
      <text class="small" x="196" y="260">English Paper 2 practice</text>

      <rect x="160" y="280" width="220" height="34" rx="12" fill="#ffffff" stroke="#e2e8f0"/>
      <circle cx="178" cy="297" r="7" fill="#ffffff" stroke="#94a3b8"/>
      <text class="small" x="196" y="302">Math: TYS (Q41–60)</text>

      <rect x="160" y="322" width="220" height="34" rx="12" fill="#ffffff" stroke="#e2e8f0"/>
      <circle cx="178" cy="339" r="7" fill="#ffffff" stroke="#94a3b8"/>
      <text class="small" x="196" y="344">Biology: Respiration notes</text>

      <rect x="160" y="372" width="220" height="58" rx="14" fill="#ffffff" stroke="#dcfce7"/>
      <text class="t2" x="174" y="396">Daily goal</text>
      <text class="t3" x="174" y="418">2h 30m focused study</text>
      <rect x="174" y="434" width="190" height="8" rx="999" fill="#e2e8f0"/>
      <rect x="174" y="434" width="122" height="8" rx="999" fill="#22c55e"/>
    </g>

    <rect x="420" y="164" width="650" height="440" rx="14" fill="#ffffff" stroke="#e2e8f0"/>
    <text class="ui t3" x="444" y="196">February 2026</text>
    <text class="ui t2" x="934" y="196">Week view</text>
    <rect x="930" y="178" width="120" height="30" rx="999" fill="#dcfce7"/>
    <text class="ui t1" x="962" y="198">On</text>

    <g>
      <rect x="444" y="214" width="602" height="362" rx="12" fill="#f8fafc"/>
      <text class="ui t2" x="462" y="240">Mon</text>
      <text class="ui t2" x="548" y="240">Tue</text>
      <text class="ui t2" x="634" y="240">Wed</text>
      <text class="ui t2" x="720" y="240">Thu</text>
      <text class="ui t2" x="806" y="240">Fri</text>
      <text class="ui t2" x="892" y="240">Sat</text>
      <text class="ui t2" x="978" y="240">Sun</text>

      <path d="M530 214 V576 M616 214 V576 M702 214 V576 M788 214 V576 M874 214 V576 M960 214 V576" stroke="#e2e8f0"/>

      <rect x="624" y="266" width="76" height="26" rx="8" fill="#bbf7d0"/>
      <text class="ui small" x="636" y="284" fill="#14532d">Chem Quiz</text>
      <rect x="710" y="314" width="152" height="26" rx="8" fill="#dbeafe"/>
      <text class="ui small" x="722" y="332" fill="#1e3a8a">Group study @ library</text>
      <rect x="452" y="362" width="164" height="26" rx="8" fill="#fde68a"/>
      <text class="ui small" x="464" y="380" fill="#7c2d12">History essay draft</text>
      <rect x="624" y="410" width="106" height="26" rx="8" fill="#fecaca"/>
      <text class="ui small" x="636" y="428" fill="#7f1d1d">Math consult</text>
      <rect x="882" y="458" width="154" height="26" rx="8" fill="#e9d5ff"/>
      <text class="ui small" x="894" y="476" fill="#581c87">Rest + recap</text>
    </g>
  </g>
</svg>
